<svg width="15" height="15" viewBox="0 0 15 15" fill="none" xmlns="http://www.w3.org/2000/svg">
<path d="M6.05219 8.69562L6.51594 8.23187L5.67438 7.38999L5.21062 7.85437C4.94062 7.67562 4.63938 7.54218 4.3175 7.45843V6.76468H2.82375V7.45843C2.49469 7.54343 2.18656 7.68062 1.91219 7.8653L1.46687 7.41999L0.625 8.26155L1.07781 8.71437C0.904687 8.97968 0.774688 9.27468 0.693438 9.58937H0V11.0819H0.693125C0.776562 11.4041 0.91 11.7062 1.08906 11.9762L0.625 12.4403L1.46656 13.2812L1.93062 12.8175C2.20125 12.9966 2.50375 13.1306 2.82656 13.2141V13.9062H4.31437V13.2137C4.63 13.1325 4.92594 13.0019 5.19187 12.8291L5.67438 13.3112L6.51594 12.4703L6.04063 11.9947C6.22656 11.7187 6.36375 11.4084 6.44875 11.0778H7.14125V9.59437H6.44875C6.36594 9.27062 6.23219 8.96687 6.05219 8.69562ZM3.57062 11.5597C2.89469 11.5597 2.34656 11.0116 2.34656 10.3356C2.34656 9.65968 2.89469 9.11155 3.57062 9.11155C4.24656 9.11155 4.79469 9.65968 4.79469 10.3356C4.79469 11.0116 4.24656 11.5597 3.57062 11.5597Z" fill="black"/>
<path d="M0 1.09375V6.45219H1.25V2.34375H9.76562V3.965H10.84V2.34375H13.75V3.77344C12.6725 4.05125 11.875 5.02687 11.875 6.19156C11.875 7.35625 12.6725 8.33187 13.75 8.60937V9.84375H10.84V8.16406H9.76562V9.84375H8.09906V11.0937H15V8.60937V7.67594V7.44156H14.375C13.6847 7.44156 13.125 6.88187 13.125 6.19156C13.125 5.50125 13.6847 4.94156 14.375 4.94156H15V4.64844V3.77344V1.09375H0Z" fill="black"/>
<path d="M10.8334 5.12064H9.76562V7.06689H10.8334V5.12064Z" fill="black"/>
</svg>
