<svg width="24" height="24" viewBox="0 0 24 24" fill="none" xmlns="http://www.w3.org/2000/svg">
<path d="M9.8732 5.53529C9.87343 6.61575 9.87793 7.69633 9.87197 8.77679C9.86735 9.61024 9.52792 9.96698 8.72323 9.96915C6.53043 9.97495 4.33762 9.97518 2.14481 9.96881C1.39504 9.96664 1.01667 9.61628 1.01149 8.86592C0.996189 6.61029 0.995851 4.35443 1.01239 2.0988C1.01757 1.39398 1.40697 1.01458 2.11319 1.01037C4.34336 0.99694 6.57375 0.995576 8.80392 1.01208C9.51318 1.01732 9.86364 1.40331 9.87016 2.12339C9.88063 3.26043 9.87309 4.39792 9.8732 5.53529ZM9.08596 5.45925C9.08596 4.43582 9.06896 3.41204 9.09406 2.38918C9.10464 1.9572 8.98737 1.78486 8.53168 1.78919C6.47066 1.80865 4.40931 1.80513 2.34818 1.79124C1.9446 1.78851 1.77994 1.90917 1.78321 2.3408C1.79896 4.44436 1.79649 6.54814 1.78478 8.65181C1.78265 9.03689 1.90025 9.18555 2.29978 9.18259C4.39839 9.16699 6.49711 9.16586 8.59572 9.18316C9.00999 9.18657 9.09834 9.01754 9.09215 8.64304C9.07437 7.58205 9.08596 6.52059 9.08596 5.45925Z" fill="#241F20" stroke="#241F20" stroke-width="0.5"/>
<path d="M5.48409 14.029C6.55236 14.029 7.62074 14.0249 8.689 14.0303C9.51384 14.0346 9.86835 14.3763 9.87071 15.1889C9.8769 17.4067 9.87724 19.6246 9.87038 21.8424C9.86801 22.6204 9.51013 22.9875 8.72513 22.9915C6.53232 23.0026 4.33952 23.0033 2.14671 22.9909C1.38355 22.9866 1.01261 22.6039 1.00867 21.8215C0.997412 19.6036 0.996511 17.3858 1.00957 15.1679C1.01418 14.3833 1.38512 14.0358 2.16697 14.0308C3.27249 14.0239 4.37835 14.029 5.48409 14.029ZM9.08516 18.4867C9.08516 17.4254 9.07795 16.3641 9.08955 15.3028C9.09303 14.9814 9.01639 14.8175 8.65411 14.8194C6.51803 14.831 4.38183 14.8304 2.24564 14.8197C1.90035 14.818 1.78544 14.9546 1.78646 15.2886C1.79343 17.4302 1.79512 19.5719 1.78511 21.7133C1.78331 22.0875 1.93321 22.2083 2.28863 22.2067C4.38724 22.1972 6.48607 22.1946 8.58467 22.2085C8.98544 22.2111 9.09855 22.0545 9.0918 21.6704C9.07312 20.6096 9.08527 19.5481 9.08516 18.4867Z" fill="#241F20" stroke="#241F20" stroke-width="0.5"/>
<path d="M11.8867 3.51653C11.8867 3.26645 11.8867 3.06019 11.8867 2.80658C15.5837 2.80658 19.2782 2.80658 23.0008 2.80658C23.0008 3.03742 23.0008 3.25723 23.0008 3.51653C19.3107 3.51653 15.6299 3.51653 11.8867 3.51653Z" fill="#241F20" stroke="#241F20" stroke-width="0.5"/>
<path d="M11.8906 16.524C11.8906 16.2643 11.8906 16.0437 11.8906 15.7906C15.592 15.7906 19.2704 15.7906 22.9886 15.7906C22.9886 16.0262 22.9886 16.2584 22.9886 16.524C19.3055 16.524 15.6266 16.524 11.8906 16.524Z" fill="#241F20" stroke="#241F20" stroke-width="0.5"/>
<path d="M19.0614 7.48438C19.0614 7.73582 19.0614 7.95677 19.0614 8.20969C16.6681 8.20969 14.297 8.20969 11.8965 8.20969C11.8965 7.96644 11.8965 7.74561 11.8965 7.48438C14.2619 7.48438 16.6338 7.48438 19.0614 7.48438Z" fill="#241F20" stroke="#241F20" stroke-width="0.5"/>
<path d="M11.8965 21.2016C11.8965 20.9478 11.8965 20.7288 11.8965 20.4771C14.292 20.4771 16.6588 20.4771 19.0551 20.4771C19.0551 20.7237 19.0551 20.9424 19.0551 21.2016C16.6849 21.2016 14.3176 21.2016 11.8965 21.2016Z" fill="#241F20" stroke="#241F20" stroke-width="0.5"/>
</svg>
